<mxfile host="app.diagrams.net" modified="2024-01-25T08:33:16.861Z" agent="Mozilla/5.0 (Windows NT 10.0; Win64; x64) AppleWebKit/537.36 (KHTML, like Gecko) Chrome/120.0.0.0 Safari/537.36" etag="kIAkpEBi2uvJIBz8f6qo" version="22.1.21" type="google">
  <diagram name="페이지-1" id="aEvHvg_GISMhGPSxpiuL">
    <mxGraphModel grid="1" page="1" gridSize="10" guides="1" tooltips="1" connect="1" arrows="1" fold="1" pageScale="1" pageWidth="1169" pageHeight="827" math="0" shadow="0">
      <root>
        <mxCell id="0" />
        <mxCell id="1" parent="0" />
        <mxCell id="wB_7CRHb40THPqK0Hq_M-1" value="&lt;font style=&quot;font-size: 18px;&quot;&gt;Env&lt;/font&gt;" style="ellipse;whiteSpace=wrap;html=1;flipH=1;" vertex="1" parent="1">
          <mxGeometry x="45" y="70" width="120" height="80" as="geometry" />
        </mxCell>
        <mxCell id="wB_7CRHb40THPqK0Hq_M-2" value="&lt;font style=&quot;font-size: 18px;&quot;&gt;DM&lt;/font&gt;" style="rounded=0;whiteSpace=wrap;html=1;flipH=1;" vertex="1" parent="1">
          <mxGeometry x="341" y="80" width="120" height="60" as="geometry" />
        </mxCell>
        <mxCell id="wB_7CRHb40THPqK0Hq_M-3" value="&lt;font style=&quot;font-size: 18px;&quot;&gt;MPM&lt;/font&gt;" style="rounded=0;whiteSpace=wrap;html=1;flipH=1;" vertex="1" parent="1">
          <mxGeometry x="501" y="80" width="120" height="60" as="geometry" />
        </mxCell>
        <mxCell id="wB_7CRHb40THPqK0Hq_M-4" value="&lt;font style=&quot;font-size: 18px;&quot;&gt;AM&lt;/font&gt;" style="rounded=0;whiteSpace=wrap;html=1;flipH=1;" vertex="1" parent="1">
          <mxGeometry x="661" y="80" width="120" height="60" as="geometry" />
        </mxCell>
        <mxCell id="wB_7CRHb40THPqK0Hq_M-5" value="&lt;font style=&quot;font-size: 18px;&quot;&gt;TM&lt;/font&gt;" style="rounded=0;whiteSpace=wrap;html=1;flipH=1;" vertex="1" parent="1">
          <mxGeometry x="821" y="80" width="120" height="60" as="geometry" />
        </mxCell>
        <mxCell id="wB_7CRHb40THPqK0Hq_M-6" value="&lt;font style=&quot;font-size: 18px;&quot;&gt;UIM&lt;/font&gt;" style="rounded=0;whiteSpace=wrap;html=1;flipH=1;" vertex="1" parent="1">
          <mxGeometry x="981" y="80" width="120" height="60" as="geometry" />
        </mxCell>
        <mxCell id="wB_7CRHb40THPqK0Hq_M-10" value="&lt;font style=&quot;font-size: 18px;&quot;&gt;User&lt;/font&gt;" style="ellipse;whiteSpace=wrap;html=1;flipH=1;" vertex="1" parent="1">
          <mxGeometry x="1141" y="70" width="120" height="80" as="geometry" />
        </mxCell>
        <mxCell id="wB_7CRHb40THPqK0Hq_M-11" value="" style="endArrow=classic;html=1;rounded=0;exitX=0.5;exitY=1;exitDx=0;exitDy=0;" edge="1" parent="1" source="wB_7CRHb40THPqK0Hq_M-1">
          <mxGeometry width="50" height="50" relative="1" as="geometry">
            <mxPoint x="104.94000000000003" y="140" as="sourcePoint" />
            <mxPoint x="104.47" y="760" as="targetPoint" />
          </mxGeometry>
        </mxCell>
        <mxCell id="wB_7CRHb40THPqK0Hq_M-12" value="" style="endArrow=classic;html=1;rounded=0;" edge="1" parent="1">
          <mxGeometry width="50" height="50" relative="1" as="geometry">
            <mxPoint x="400.94000000000005" y="140" as="sourcePoint" />
            <mxPoint x="400.47" y="760" as="targetPoint" />
          </mxGeometry>
        </mxCell>
        <mxCell id="wB_7CRHb40THPqK0Hq_M-13" value="" style="endArrow=classic;html=1;rounded=0;" edge="1" parent="1">
          <mxGeometry width="50" height="50" relative="1" as="geometry">
            <mxPoint x="560.94" y="140" as="sourcePoint" />
            <mxPoint x="560.47" y="760" as="targetPoint" />
          </mxGeometry>
        </mxCell>
        <mxCell id="wB_7CRHb40THPqK0Hq_M-14" value="" style="endArrow=classic;html=1;rounded=0;" edge="1" parent="1">
          <mxGeometry width="50" height="50" relative="1" as="geometry">
            <mxPoint x="721" y="470" as="sourcePoint" />
            <mxPoint x="721" y="760" as="targetPoint" />
          </mxGeometry>
        </mxCell>
        <mxCell id="wB_7CRHb40THPqK0Hq_M-15" value="" style="endArrow=classic;html=1;rounded=0;exitX=0.5;exitY=1;exitDx=0;exitDy=0;" edge="1" parent="1" source="wB_7CRHb40THPqK0Hq_M-5">
          <mxGeometry width="50" height="50" relative="1" as="geometry">
            <mxPoint x="880.5000000000002" y="380" as="sourcePoint" />
            <mxPoint x="880.5" y="760" as="targetPoint" />
          </mxGeometry>
        </mxCell>
        <mxCell id="wB_7CRHb40THPqK0Hq_M-16" value="" style="endArrow=classic;html=1;rounded=0;exitX=0.5;exitY=1;exitDx=0;exitDy=0;" edge="1" parent="1" source="wB_7CRHb40THPqK0Hq_M-6">
          <mxGeometry width="50" height="50" relative="1" as="geometry">
            <mxPoint x="1040" y="250" as="sourcePoint" />
            <mxPoint x="1040.47" y="760" as="targetPoint" />
          </mxGeometry>
        </mxCell>
        <mxCell id="wB_7CRHb40THPqK0Hq_M-17" value="" style="endArrow=classic;html=1;rounded=0;" edge="1" parent="1">
          <mxGeometry width="50" height="50" relative="1" as="geometry">
            <mxPoint x="1200" y="150" as="sourcePoint" />
            <mxPoint x="1200.47" y="760" as="targetPoint" />
          </mxGeometry>
        </mxCell>
        <mxCell id="vnhUpB_bx22DK_QbWkj4-7" value="" style="endArrow=none;html=1;rounded=0;endFill=0;" edge="1" parent="1">
          <mxGeometry width="50" height="50" relative="1" as="geometry">
            <mxPoint x="721.47" y="140" as="sourcePoint" />
            <mxPoint x="721" y="470" as="targetPoint" />
          </mxGeometry>
        </mxCell>
        <mxCell id="8ow5oquwog-82AawMkZM-13" value="" style="endArrow=open;html=1;rounded=0;endFill=0;" edge="1" parent="1">
          <mxGeometry width="50" height="50" relative="1" as="geometry">
            <mxPoint x="1041" y="595.99" as="sourcePoint" />
            <mxPoint x="1199" y="596.4066666666665" as="targetPoint" />
          </mxGeometry>
        </mxCell>
        <mxCell id="8ow5oquwog-82AawMkZM-14" value="침입자 수 최종 보고&lt;br&gt;메시지 출력&lt;br style=&quot;border-color: var(--border-color); font-size: 12px;&quot;&gt;(text/tts)" style="edgeLabel;html=1;align=center;verticalAlign=middle;resizable=0;points=[];fontSize=12;" connectable="0" vertex="1" parent="8ow5oquwog-82AawMkZM-13">
          <mxGeometry x="0.0696" relative="1" as="geometry">
            <mxPoint x="-5" y="-30" as="offset" />
          </mxGeometry>
        </mxCell>
        <mxCell id="8ow5oquwog-82AawMkZM-15" value="" style="endArrow=open;html=1;rounded=0;endFill=0;" edge="1" parent="1">
          <mxGeometry width="50" height="50" relative="1" as="geometry">
            <mxPoint x="1041" y="503.99" as="sourcePoint" />
            <mxPoint x="1199" y="504.4066666666665" as="targetPoint" />
          </mxGeometry>
        </mxCell>
        <mxCell id="8ow5oquwog-82AawMkZM-16" value="(전향/복귀) 순찰 종료 &lt;br&gt;메시지 출력&lt;br style=&quot;border-color: var(--border-color); font-size: 12px;&quot;&gt;(text/tts)" style="edgeLabel;html=1;align=center;verticalAlign=middle;resizable=0;points=[];fontSize=12;" connectable="0" vertex="1" parent="8ow5oquwog-82AawMkZM-15">
          <mxGeometry x="0.0696" relative="1" as="geometry">
            <mxPoint x="-5" y="-26" as="offset" />
          </mxGeometry>
        </mxCell>
        <mxCell id="8ow5oquwog-82AawMkZM-17" value="" style="endArrow=open;html=1;rounded=0;endFill=0;" edge="1" parent="1">
          <mxGeometry width="50" height="50" relative="1" as="geometry">
            <mxPoint x="881" y="468.99" as="sourcePoint" />
            <mxPoint x="1039" y="469.4066666666665" as="targetPoint" />
          </mxGeometry>
        </mxCell>
        <mxCell id="8ow5oquwog-82AawMkZM-18" value="(전향/복귀) 모드 종료 알림&lt;br&gt;(publish)" style="edgeLabel;html=1;align=center;verticalAlign=middle;resizable=0;points=[];fontSize=12;" connectable="0" vertex="1" parent="8ow5oquwog-82AawMkZM-17">
          <mxGeometry relative="1" as="geometry">
            <mxPoint x="-2" as="offset" />
          </mxGeometry>
        </mxCell>
        <mxCell id="8ow5oquwog-82AawMkZM-19" value="" style="endArrow=open;html=1;rounded=0;endFill=0;" edge="1" parent="1">
          <mxGeometry width="50" height="50" relative="1" as="geometry">
            <mxPoint x="881" y="555.99" as="sourcePoint" />
            <mxPoint x="1039" y="556.4066666666665" as="targetPoint" />
          </mxGeometry>
        </mxCell>
        <mxCell id="8ow5oquwog-82AawMkZM-20" value="침입자 수 알림(최종보고)&lt;br&gt;(publish)" style="edgeLabel;html=1;align=center;verticalAlign=middle;resizable=0;points=[];fontSize=12;" connectable="0" vertex="1" parent="8ow5oquwog-82AawMkZM-19">
          <mxGeometry relative="1" as="geometry">
            <mxPoint as="offset" />
          </mxGeometry>
        </mxCell>
        <mxCell id="8ow5oquwog-82AawMkZM-26" value="" style="endArrow=open;html=1;rounded=0;endFill=0;" edge="1" parent="1">
          <mxGeometry width="50" height="50" relative="1" as="geometry">
            <mxPoint x="252" y="283" as="sourcePoint" />
            <mxPoint x="105" y="283.33333333333394" as="targetPoint" />
          </mxGeometry>
        </mxCell>
        <mxCell id="8ow5oquwog-82AawMkZM-27" value="회전 속도값 발행" style="edgeLabel;html=1;align=center;verticalAlign=middle;resizable=0;points=[];fontSize=12;" connectable="0" vertex="1" parent="8ow5oquwog-82AawMkZM-26">
          <mxGeometry relative="1" as="geometry">
            <mxPoint as="offset" />
          </mxGeometry>
        </mxCell>
        <mxCell id="8ow5oquwog-82AawMkZM-29" value="" style="endArrow=open;html=1;rounded=0;endFill=0;" edge="1" parent="1">
          <mxGeometry width="50" height="50" relative="1" as="geometry">
            <mxPoint x="252" y="310.42000000000047" as="sourcePoint" />
            <mxPoint x="106" y="310.00333333333396" as="targetPoint" />
          </mxGeometry>
        </mxCell>
        <mxCell id="8ow5oquwog-82AawMkZM-30" value="직진 속도값 발행" style="edgeLabel;html=1;align=center;verticalAlign=middle;resizable=0;points=[];fontSize=12;" connectable="0" vertex="1" parent="8ow5oquwog-82AawMkZM-29">
          <mxGeometry relative="1" as="geometry">
            <mxPoint as="offset" />
          </mxGeometry>
        </mxCell>
        <mxCell id="8ow5oquwog-82AawMkZM-33" value="" style="endArrow=open;html=1;rounded=0;endFill=0;dashed=1;" edge="1" parent="1">
          <mxGeometry width="50" height="50" relative="1" as="geometry">
            <mxPoint x="721" y="400.00219858156066" as="sourcePoint" />
            <mxPoint x="871" y="400.4188652482272" as="targetPoint" />
          </mxGeometry>
        </mxCell>
        <mxCell id="8ow5oquwog-82AawMkZM-34" value="&lt;p style=&quot;margin-top: 0pt; margin-bottom: 0pt; margin-left: 0in; direction: ltr; unicode-bidi: embed; font-size: 12px;&quot;&gt;작업 결과 보고&lt;/p&gt;&lt;p style=&quot;margin-top: 0pt; margin-bottom: 0pt; margin-left: 0in; direction: ltr; unicode-bidi: embed; font-size: 12px;&quot;&gt;(service response)&lt;/p&gt;" style="edgeLabel;html=1;align=center;verticalAlign=middle;resizable=0;points=[];fontSize=12;" connectable="0" vertex="1" parent="8ow5oquwog-82AawMkZM-33">
          <mxGeometry relative="1" as="geometry">
            <mxPoint as="offset" />
          </mxGeometry>
        </mxCell>
        <mxCell id="roTEfBc0p75Sdqu_rDuw-1" value="" style="endArrow=open;html=1;rounded=0;exitX=0;exitY=0;exitDx=0;exitDy=5;exitPerimeter=0;endFill=0;" edge="1" parent="1">
          <mxGeometry width="50" height="50" relative="1" as="geometry">
            <mxPoint x="870" y="239" as="sourcePoint" />
            <mxPoint x="722" y="239.0000000000001" as="targetPoint" />
          </mxGeometry>
        </mxCell>
        <mxCell id="roTEfBc0p75Sdqu_rDuw-2" value="작업 중지 요청&lt;br style=&quot;font-size: 12px;&quot;&gt;(service request)" style="edgeLabel;html=1;align=center;verticalAlign=middle;resizable=0;points=[];fontSize=12;" connectable="0" vertex="1" parent="roTEfBc0p75Sdqu_rDuw-1">
          <mxGeometry relative="1" as="geometry">
            <mxPoint as="offset" />
          </mxGeometry>
        </mxCell>
        <mxCell id="EcskRe7ssxHk2P0qn3gs-2" value="" style="endArrow=classic;html=1;rounded=0;exitX=0.5;exitY=1;exitDx=0;exitDy=0;" edge="1" parent="1" source="H-Y0rYyK4lbYAYTa6aiV-1">
          <mxGeometry width="50" height="50" relative="1" as="geometry">
            <mxPoint x="252" y="150" as="sourcePoint" />
            <mxPoint x="251.47" y="760" as="targetPoint" />
          </mxGeometry>
        </mxCell>
        <mxCell id="EcskRe7ssxHk2P0qn3gs-3" value="" style="endArrow=open;html=1;rounded=0;exitX=0;exitY=0;exitDx=0;exitDy=5;exitPerimeter=0;endFill=0;" edge="1" parent="1">
          <mxGeometry width="50" height="50" relative="1" as="geometry">
            <mxPoint x="721" y="260" as="sourcePoint" />
            <mxPoint x="252" y="260" as="targetPoint" />
          </mxGeometry>
        </mxCell>
        <mxCell id="EcskRe7ssxHk2P0qn3gs-4" value="행동 정지&lt;br style=&quot;font-size: 12px;&quot;&gt;(action goal)" style="edgeLabel;html=1;align=center;verticalAlign=middle;resizable=0;points=[];fontSize=12;" connectable="0" vertex="1" parent="EcskRe7ssxHk2P0qn3gs-3">
          <mxGeometry relative="1" as="geometry">
            <mxPoint as="offset" />
          </mxGeometry>
        </mxCell>
        <mxCell id="EcskRe7ssxHk2P0qn3gs-5" value="" style="endArrow=open;html=1;rounded=0;exitX=0;exitY=0;exitDx=0;exitDy=5;exitPerimeter=0;endFill=0;dashed=1;" edge="1" parent="1">
          <mxGeometry width="50" height="50" relative="1" as="geometry">
            <mxPoint x="252" y="370" as="sourcePoint" />
            <mxPoint x="720" y="370" as="targetPoint" />
          </mxGeometry>
        </mxCell>
        <mxCell id="EcskRe7ssxHk2P0qn3gs-6" value="주행 결과 보고&lt;br style=&quot;font-size: 12px;&quot;&gt;(action result)" style="edgeLabel;html=1;align=center;verticalAlign=middle;resizable=0;points=[];fontSize=12;" connectable="0" vertex="1" parent="EcskRe7ssxHk2P0qn3gs-5">
          <mxGeometry relative="1" as="geometry">
            <mxPoint as="offset" />
          </mxGeometry>
        </mxCell>
        <mxCell id="EcskRe7ssxHk2P0qn3gs-7" value="" style="endArrow=open;html=1;rounded=0;exitX=0;exitY=0;exitDx=0;exitDy=5;exitPerimeter=0;endFill=0;dashed=1;" edge="1" parent="1">
          <mxGeometry width="50" height="50" relative="1" as="geometry">
            <mxPoint x="252" y="330" as="sourcePoint" />
            <mxPoint x="720" y="330" as="targetPoint" />
          </mxGeometry>
        </mxCell>
        <mxCell id="EcskRe7ssxHk2P0qn3gs-8" value="주행 피드백 보고&lt;br style=&quot;font-size: 12px;&quot;&gt;(action feedback)" style="edgeLabel;html=1;align=center;verticalAlign=middle;resizable=0;points=[];fontSize=12;" connectable="0" vertex="1" parent="EcskRe7ssxHk2P0qn3gs-7">
          <mxGeometry relative="1" as="geometry">
            <mxPoint as="offset" />
          </mxGeometry>
        </mxCell>
        <mxCell id="EcskRe7ssxHk2P0qn3gs-9" value="" style="rounded=0;whiteSpace=wrap;html=1;" vertex="1" parent="1">
          <mxGeometry x="871" y="230" width="20" height="180" as="geometry" />
        </mxCell>
        <mxCell id="H-Y0rYyK4lbYAYTa6aiV-1" value="&lt;span style=&quot;font-size: 18px;&quot;&gt;AE&lt;/span&gt;" style="rounded=0;whiteSpace=wrap;html=1;" vertex="1" parent="1">
          <mxGeometry x="191" y="80" width="120" height="60" as="geometry" />
        </mxCell>
      </root>
    </mxGraphModel>
  </diagram>
</mxfile>
